General

Format                           : Matroska
File size                        : 2.20 GiB
Duration                         : 1h 36mn
Overall bit rate                 : 3 249 Kbps
Encoded date                     : UTC 2010-12-10 14:23:53
Writing application              : mkvmerge v4.0.0 ('The Stars were mine') built on Jun  6 2010 16:18:42
Writing library                  : libebml v1.0.0 + libmatroska v1.0.0


Source : CBGB-BOZX

Encoder : RajMahal

Video

ID                               : 1
Format                           : AVC
Format/Info                      : Advanced Video Codec
Format profile                   : High@L4.1
Format settings, CABAC           : Yes
Format settings, ReFrames        : 3 frames
Codec ID                         : V_MPEG4/ISO/AVC
Duration                         : 1h 36mn
Bit rate mode                    : Variable
Bit rate                         : 2 865 Kbps
Maximum bit rate                 : 8 000 Kbps
Width                            : 1 280 pixels
Height                           : 544 pixels
Display aspect ratio             : 2.35:1
Frame rate                       : 23.976 fps
Color space                      : YUV
Chroma subsampling               : 4:2:0
Bit depth                        : 8 bits
Scan type                        : Progressive
Bits/(Pixel*Frame)               : 0.172
Stream size                      : 1.89 GiB (86%)
           

Audio

ID                               : 2
Format                           : AC-3
Format/Info                      : Audio Coding 3
Mode extension                   : CM (complete main)
Codec ID                         : A_AC3
Duration                         : 1h 36mn
Bit rate mode                    : Constant
Bit rate                         : 384 Kbps
Channel(s)                       : 6 channels
Channel positions                : Front: L C R, Side: L R, LFE
Sampling rate                    : 48.0 KHz
Bit depth                        : 16 bits
Compression mode                 : Lossy
Stream size                      : 266 MiB (12%)

Screenshots:

 
http://img688.imageshack.us/img688/9908/vlcsnap2010121015h29m25.png 
http://img219.imageshack.us/img219/4858/vlcsnap2010121015h29m32.png 
http://img716.imageshack.us/img716/4773/vlcsnap2010121015h29m46.png 
http://img573.imageshack.us/img573/3567/vlcsnap2010121015h30m02.png 
http://img220.imageshack.us/img220/8154/vlcsnap2010121015h30m57.png
